<svg version="1.1" xmlns="http://www.w3.org/2000/svg" style="display: block;" viewBox="250 760 1500 520" width="1200" height="420" preserveAspectRatio="xMidYMid meet">
<defs>
	<linearGradient id="Gradient1" gradientUnits="objectBoundingBox" x1="1637.42" y1="971.35" x2="1623.57" y2="908.687">
		<stop class="stop0" offset="0" stop-opacity="1" stop-color="rgb(105,87,149)"/>
		<stop class="stop1" offset="1" stop-opacity="1" stop-color="rgb(201,124,200)"/>
	</linearGradient>
	<linearGradient id="Gradient2" gradientUnits="objectBoundingBox" x1="1676.99" y1="1027" x2="1633.88" y2="975.054">
		<stop class="stop0" offset="0" stop-opacity="1" stop-color="rgb(46,51,84)"/>
		<stop class="stop1" offset="1" stop-opacity="1" stop-color="rgb(86,73,121)"/>
	</linearGradient>
	<linearGradient id="Gradient3" gradientUnits="objectBoundingBox" x1="1387.2" y1="1013.27" x2="1371.38" y2="965.531">
		<stop class="stop0" offset="0" stop-opacity="1" stop-color="rgb(177,105,187)"/>
		<stop class="stop1" offset="1" stop-opacity="1" stop-color="rgb(243,145,216)"/>
	</linearGradient>
	<linearGradient id="Gradient4" gradientUnits="objectBoundingBox" x1="1510.45" y1="963.493" x2="1463.76" y2="859.083">
		<stop class="stop0" offset="0" stop-opacity="1" stop-color="rgb(218,110,197)"/>
		<stop class="stop1" offset="1" stop-opacity="1" stop-color="rgb(255,226,243)"/>
	</linearGradient>
	<linearGradient id="Gradient5" gradientUnits="objectBoundingBox" x1="627.216" y1="1125.02" x2="663.042" y2="1171.38">
		<stop class="stop0" offset="0" stop-opacity="1" stop-color="rgb(242,151,212)"/>
		<stop class="stop1" offset="1" stop-opacity="1" stop-color="rgb(255,226,233)"/>
	</linearGradient>
	<linearGradient id="Gradient6" gradientUnits="objectBoundingBox" x1="542.585" y1="1107.09" x2="581.837" y2="1163.59">
		<stop class="stop0" offset="0" stop-opacity="1" stop-color="rgb(133,74,180)"/>
		<stop class="stop1" offset="1" stop-opacity="1" stop-color="rgb(252,136,207)"/>
	</linearGradient>
	<linearGradient id="Gradient7" gradientUnits="objectBoundingBox" x1="1361.1" y1="1024.96" x2="1371.16" y2="1047.6">
		<stop class="stop0" offset="0" stop-opacity="1" stop-color="rgb(127,86,169)"/>
		<stop class="stop1" offset="1" stop-opacity="1" stop-color="rgb(75,54,124)"/>
	</linearGradient>
	<linearGradient id="Gradient8" gradientUnits="objectBoundingBox" x1="1620.65" y1="1068.52" x2="1651.06" y2="1102.94">
		<stop class="stop0" offset="0" stop-opacity="1" stop-color="rgb(57,44,87)"/>
		<stop class="stop1" offset="1" stop-opacity="1" stop-color="rgb(68,107,187)"/>
	</linearGradient>
	<linearGradient id="Gradient9" gradientUnits="objectBoundingBox" x1="1413.02" y1="1157.02" x2="1514.95" y2="1055.01">
		<stop class="stop0" offset="0" stop-opacity="1" stop-color="rgb(29,21,43)"/>
		<stop class="stop1" offset="1" stop-opacity="1" stop-color="rgb(68,69,143)"/>
	</linearGradient>
	<linearGradient id="Gradient10" gradientUnits="objectBoundingBox" x1="970.68" y1="953.489" x2="960.61" y2="936.924">
		<stop class="stop0" offset="0" stop-opacity="1" stop-color="rgb(215,191,245)"/>
		<stop class="stop1" offset="1" stop-opacity="1" stop-color="rgb(179,163,232)"/>
	</linearGradient>
	<linearGradient id="Gradient11" gradientUnits="objectBoundingBox" x1="661.597" y1="1082.11" x2="731.538" y2="1164.78">
		<stop class="stop0" offset="0" stop-opacity="1" stop-color="rgb(214,123,206)"/>
		<stop class="stop1" offset="1" stop-opacity="1" stop-color="rgb(255,250,247)"/>
	</linearGradient>
	<linearGradient id="Gradient12" gradientUnits="objectBoundingBox" x1="750.277" y1="880.17" x2="846.857" y2="1000.79">
		<stop class="stop0" offset="0" stop-opacity="1" stop-color="rgb(7,8,171)"/>
		<stop class="stop1" offset="1" stop-opacity="1" stop-color="rgb(48,129,245)"/>
	</linearGradient>
	<linearGradient id="Gradient13" gradientUnits="objectBoundingBox" x1="1107.92" y1="860.514" x2="1123.78" y2="886.635">
		<stop class="stop0" offset="0" stop-opacity="1" stop-color="rgb(90,164,235)"/>
		<stop class="stop1" offset="1" stop-opacity="1" stop-color="rgb(177,189,242)"/>
	</linearGradient>
	<linearGradient id="Gradient14" gradientUnits="objectBoundingBox" x1="1171.29" y1="1063.5" x2="1112.21" y2="870.188">
		<stop class="stop0" offset="0" stop-opacity="1" stop-color="rgb(255,167,213)"/>
		<stop class="stop1" offset="1" stop-opacity="1" stop-color="rgb(215,220,252)"/>
	</linearGradient>
</defs>
<path transform="translate(0,0)" fill="url(#Gradient14)" d="M 1050.83 899.714 C 1052.11 898.279 1053.45 896.896 1054.84 895.568 C 1085.46 866.432 1127.93 847.805 1170.59 848.974 C 1180.75 848.856 1192.52 849.257 1202.37 852.002 C 1253.37 859.71 1309.82 908.812 1324.58 957.707 C 1327.85 968.551 1335.13 991.235 1334.71 1001.66 C 1337.08 1009.7 1336.32 1034.33 1336.21 1043.67 C 1335.03 1040.21 1334.78 1040.11 1332.72 1037.24 C 1322.76 1031.35 1309.75 1046.08 1299.69 1045.84 C 1296.43 1043.12 1297.43 1039.46 1296.24 1033.43 C 1295.79 1020.88 1295.04 1011.12 1293.71 998.757 C 1284.97 959.538 1266.33 929.942 1232.18 907.193 C 1203.32 887.972 1172.06 886.884 1138.42 892.706 C 1109.77 897.663 1075.51 928.479 1060.46 952.375 C 1051 967.405 1043.15 996.343 1041.95 1014.45 C 1041.89 1036.01 1043.04 1176.45 1039.28 1185 C 1026.96 1184.66 1014.62 1185.69 1002.61 1183.68 C 1000.4 1176.03 999.888 1171.62 999.118 1163.59 C 998.931 1154.57 998.859 1145.56 998.904 1136.54 C 999.268 1123.89 998.503 1110.6 998.836 1097.57 C 998.022 1083.45 998.515 1069.4 998.269 1055.33 C 997.546 1014.02 1000.07 975.353 1022.56 939.274 C 1029.15 926.274 1041.49 911.016 1050.83 899.714 z"/>
<path transform="translate(0,0)" fill="rgb(49,39,82)" d="M 1040.86 1079.01 C 1040.74 1065.97 1039.69 1025.21 1041.95 1014.45 C 1041.89 1036.01 1043.04 1176.45 1039.28 1185 C 1026.96 1184.66 1014.62 1185.69 1002.61 1183.68 C 1000.4 1176.03 999.888 1171.62 999.118 1163.59 C 998.931 1154.57 998.859 1145.56 998.904 1136.54 C 999.268 1123.89 998.503 1110.6 998.836 1097.57 C 1000.53 1099.49 1000.19 1099.17 1001.42 1101.49 C 1001.31 1104.52 1000.77 1106.34 1003.04 1108.33 C 1013.03 1103.18 1020.81 1099.32 1031.2 1094.92 C 1033.57 1095.24 1035.36 1095.44 1037.75 1095.6 L 1039.17 1092.89 C 1038.94 1085.91 1038.23 1085.91 1040.86 1079.01 z"/>
<path transform="translate(0,0)" fill="rgb(203,110,188)" d="M 1040.86 1079.01 C 1040.99 1093.61 1040.86 1108.22 1040.47 1122.82 C 1026.93 1123.99 1015.75 1134.19 1002.96 1138.52 C 1001.4 1139.05 1000.28 1137.66 998.904 1136.54 C 999.268 1123.89 998.503 1110.6 998.836 1097.57 C 1000.53 1099.49 1000.19 1099.17 1001.42 1101.49 C 1001.31 1104.52 1000.77 1106.34 1003.04 1108.33 C 1013.03 1103.18 1020.81 1099.32 1031.2 1094.92 C 1033.57 1095.24 1035.36 1095.44 1037.75 1095.6 L 1039.17 1092.89 C 1038.94 1085.91 1038.23 1085.91 1040.86 1079.01 z"/>
<path transform="translate(0,0)" fill="rgb(9,10,65)" d="M 999.118 1163.59 C 1005.69 1165.38 1028.68 1153.97 1035.47 1157.12 C 1038.25 1166.85 1036.02 1174.19 1039.28 1185 C 1026.96 1184.66 1014.62 1185.69 1002.61 1183.68 C 1000.4 1176.03 999.888 1171.62 999.118 1163.59 z"/>
<path transform="translate(0,0)" fill="url(#Gradient13)" d="M 1050.83 899.714 C 1052.11 898.279 1053.45 896.896 1054.84 895.568 C 1085.46 866.432 1127.93 847.805 1170.59 848.974 C 1168.38 849.485 1167.08 849.612 1165.07 850.589 L 1169.67 850.767 L 1170.8 852.051 C 1168.3 857.503 1147.33 871.941 1141.11 877.273 C 1133.18 882.689 1114.23 884.843 1105.49 889.184 C 1087.82 897.962 1097.82 899.738 1076.41 904.198 C 1072.28 902.962 1055.42 900.217 1050.83 899.714 z"/>
<path transform="translate(0,0)" fill="rgb(203,110,188)" d="M 1293.71 998.757 C 1305.82 1010.34 1285.02 1031.45 1320.21 1016.2 C 1323.14 1014.93 1328.36 1016.23 1330.95 1013.98 L 1330.74 1008.51 L 1332 1007.71 C 1333.29 1009.88 1333.32 1009.77 1333.8 1012.22 C 1333.83 1009.07 1333.55 1004.36 1334.71 1001.66 C 1337.08 1009.7 1336.32 1034.33 1336.21 1043.67 C 1335.03 1040.21 1334.78 1040.11 1332.72 1037.24 C 1322.76 1031.35 1309.75 1046.08 1299.69 1045.84 C 1296.43 1043.12 1297.43 1039.46 1296.24 1033.43 C 1295.79 1020.88 1295.04 1011.12 1293.71 998.757 z"/>
<path transform="translate(0,0)" fill="rgb(173,191,246)" d="M 1170.59 848.974 C 1180.75 848.856 1192.52 849.257 1202.37 852.002 C 1197.21 853.23 1184.47 851.464 1177.16 851.497 C 1169.36 860.307 1153.76 871.92 1143.54 878.733 C 1131.23 889.045 1113.58 894.232 1099.46 902.298 C 1092.38 906.347 1070.99 920.281 1063.59 917.698 L 1063.01 916.155 L 1064.05 914.754 L 1063.82 913.763 L 1062.84 913.16 C 1065.8 908.374 1071.27 905.983 1076.41 904.198 C 1097.82 899.738 1087.82 897.962 1105.49 889.184 C 1114.23 884.843 1133.18 882.689 1141.11 877.273 C 1147.33 871.941 1168.3 857.503 1170.8 852.051 L 1169.67 850.767 L 1165.07 850.589 C 1167.08 849.612 1168.38 849.485 1170.59 848.974 z"/>
<path transform="translate(0,0)" fill="rgb(169,179,238)" d="M 1050.83 899.714 C 1055.42 900.217 1072.28 902.962 1076.41 904.198 C 1071.27 905.983 1065.8 908.374 1062.84 913.16 C 1058.58 911.021 1050.75 911.427 1046.57 912.7 C 1036.7 915.709 1031.04 934.884 1022.56 939.274 C 1029.15 926.274 1041.49 911.016 1050.83 899.714 z"/>
<path transform="translate(0,0)" fill="url(#Gradient12)" d="M 674.744 1126.39 C 673.682 1111.35 674.396 1088.93 674.132 1073.45 C 673.812 1054.73 673.472 1029.93 674.617 1011.72 C 677.13 971.793 703.348 916.728 734.626 891.126 C 771.888 860.624 809.742 844.758 858.566 849.6 C 894.809 853.194 932.313 870.669 955.548 898.893 C 960.831 903.995 966.029 909.049 970.451 914.946 C 979.068 925.805 983.229 934.351 989.396 946.612 C 980.785 949.373 960.986 957.777 952.929 962.109 C 947.12 953.541 941.216 942.235 935.222 934.627 C 929.41 927.917 925.261 924.238 918.562 918.281 C 909.907 912.35 898.435 903.671 889.136 899.226 C 868.55 889.388 836.402 888.833 814.347 892.778 C 781.738 898.611 752.566 924.759 734.265 951.149 C 724.981 964.535 720.118 985.787 717.2 1001.72 C 715.342 1017.98 715.559 1035.18 715.661 1051.57 L 715.718 1069.6 C 716.498 1108.24 715.684 1147.37 715.976 1186.09 L 674.991 1185.97 C 674.648 1166.11 674.566 1146.25 674.744 1126.39 z"/>
<path transform="translate(0,0)" fill="url(#Gradient11)" d="M 711.054 1037.42 L 712.879 1033.58 L 713.038 1034.15 L 714.049 1034.85 C 714.591 1039.24 714.701 1048.34 715.661 1051.57 L 715.718 1069.6 C 716.498 1108.24 715.684 1147.37 715.976 1186.09 L 674.991 1185.97 C 674.648 1166.11 674.566 1146.25 674.744 1126.39 C 675.555 1111.34 675.055 1092.63 675.037 1077.31 L 674.922 1048.66 C 690.596 1045.28 696.858 1044.73 711.054 1037.42 z"/>
<path transform="translate(0,0)" fill="rgb(174,107,201)" d="M 674.922 1048.66 C 690.596 1045.28 696.858 1044.73 711.054 1037.42 C 707.434 1045.17 706.337 1047.86 700.922 1054.6 C 699.223 1055.24 699.057 1055.25 697.102 1055.18 C 686.038 1062.31 681.096 1065.16 675.037 1077.31 L 674.922 1048.66 z"/>
<path transform="translate(0,0)" fill="rgb(191,148,226)" d="M 711.054 1037.42 L 712.879 1033.58 L 713.038 1034.15 L 714.049 1034.85 C 714.591 1039.24 714.701 1048.34 715.661 1051.57 L 715.718 1069.6 C 712.085 1050.57 708.401 1065.01 697.414 1056.88 L 698.001 1056.05 L 705.095 1055.74 L 700.922 1054.6 C 706.337 1047.86 707.434 1045.17 711.054 1037.42 z"/>
<path transform="translate(0,0)" fill="url(#Gradient10)" d="M 970.451 914.946 C 979.068 925.805 983.229 934.351 989.396 946.612 C 980.785 949.373 960.986 957.777 952.929 962.109 C 947.12 953.541 941.216 942.235 935.222 934.627 C 947.699 924.71 960.088 933.979 970.451 914.946 z"/>
<path transform="translate(0,0)" fill="rgb(128,128,206)" d="M 710.908 1019.29 C 712.327 1011.84 712.821 1007.88 717.2 1001.72 C 715.342 1017.98 715.559 1035.18 715.661 1051.57 C 714.701 1048.34 714.591 1039.24 714.049 1034.85 L 713.038 1034.15 L 712.879 1033.58 L 711.054 1037.42 C 696.858 1044.73 690.596 1045.28 674.922 1048.66 L 675.572 1031.11 C 690.034 1028.11 698.193 1026.63 710.908 1019.29 z"/>
<path transform="translate(0,0)" fill="rgb(68,121,200)" d="M 955.548 898.893 C 960.831 903.995 966.029 909.049 970.451 914.946 C 960.088 933.979 947.699 924.71 935.222 934.627 C 929.41 927.917 925.261 924.238 918.562 918.281 L 919.597 917.731 C 924.36 919.119 923.632 920.434 927.27 923.398 C 931.326 917.549 932.097 918.878 938.768 916.379 L 932.814 915.857 L 932.583 914.898 C 935.522 915.047 938.463 915.144 941.405 915.189 C 947.149 915.253 961.187 915.386 960.889 907.681 C 958.103 904.487 956.209 903.106 955.548 898.893 z"/>
<path transform="translate(0,0)" fill="url(#Gradient9)" d="M 1357.32 1071.59 C 1351.46 1053.84 1348.8 1035.2 1349.46 1016.52 C 1354.91 1020.69 1373.38 1020.32 1379.59 1018.89 C 1391.92 1027.06 1385 1035.73 1390.56 1044.86 L 1391.41 1043.29 C 1392.46 1047.28 1393.62 1051.24 1394.88 1055.17 C 1407.58 1092.22 1427.54 1121.44 1463.59 1138.72 C 1509.65 1160.8 1551.63 1156.41 1592.79 1126.93 C 1594.01 1124.81 1606.28 1113.98 1608.85 1111.7 C 1625.9 1096.57 1637.4 1070.78 1642.58 1048.93 C 1648.49 1048.49 1671.9 1030.98 1677.64 1026.35 C 1677.59 1022.35 1677.64 1021.3 1678.97 1017.55 C 1679.57 1029.66 1678.38 1050.97 1679.85 1060.68 C 1679.24 1064.89 1677.47 1072.96 1675.63 1076.78 C 1670.78 1094.17 1666.08 1100.16 1657.96 1114.53 C 1638.8 1148.45 1623.97 1158.05 1590.39 1176.44 C 1574.04 1185.4 1554.65 1191.72 1535.63 1193.16 C 1530.4 1194.64 1519.28 1194.46 1513.72 1194.11 C 1505.66 1194.49 1496.92 1193.11 1488.91 1191.96 C 1459.22 1189.42 1428.03 1170.88 1405.67 1152.21 C 1381.84 1132.3 1365.42 1101.25 1357.32 1071.59 z"/>
<path transform="translate(0,0)" fill="rgb(68,121,200)" d="M 1642.58 1048.93 C 1648.49 1048.49 1671.9 1030.98 1677.64 1026.35 C 1677.59 1022.35 1677.64 1021.3 1678.97 1017.55 C 1679.57 1029.66 1678.38 1050.97 1679.85 1060.68 C 1679.24 1064.89 1677.47 1072.96 1675.63 1076.78 C 1670.78 1094.17 1666.08 1100.16 1657.96 1114.53 C 1638.8 1148.45 1623.97 1158.05 1590.39 1176.44 C 1574.04 1185.4 1554.65 1191.72 1535.63 1193.16 C 1530.4 1194.64 1519.28 1194.46 1513.72 1194.11 C 1505.66 1194.49 1496.92 1193.11 1488.91 1191.96 L 1488.96 1191 C 1492.64 1191.42 1496.33 1191.79 1500.03 1192.1 L 1501.72 1190.61 L 1500.95 1189.22 L 1496.45 1189.34 L 1495.04 1188.23 L 1494.64 1188.61 L 1496.44 1189.34 L 1494.03 1189.43 C 1495.69 1187.79 1495.89 1187.29 1496.68 1185.1 C 1500.83 1182.5 1505.4 1178.81 1509.78 1176.96 C 1527.89 1169.33 1547.16 1166.58 1565.66 1159.07 C 1579.4 1153.49 1586.15 1142.38 1598.81 1137.91 C 1601.42 1134.15 1603.68 1131.43 1605.17 1127.1 L 1604.11 1126.76 C 1599.71 1129.33 1595.66 1134.24 1589.76 1137.71 L 1589.29 1136.83 C 1592.16 1133.57 1594.11 1131.1 1592.79 1126.93 C 1594.01 1124.81 1606.28 1113.98 1608.85 1111.7 C 1625.9 1096.57 1637.4 1070.78 1642.58 1048.93 z"/>
<path transform="translate(0,0)" fill="url(#Gradient8)" d="M 1642.58 1048.93 C 1648.49 1048.49 1671.9 1030.98 1677.64 1026.35 C 1677.59 1022.35 1677.64 1021.3 1678.97 1017.55 C 1679.57 1029.66 1678.38 1050.97 1679.85 1060.68 C 1679.24 1064.89 1677.47 1072.96 1675.63 1076.78 C 1673.74 1078.5 1672.41 1079.78 1671.45 1082.27 C 1668.77 1089.19 1659.92 1091.95 1654.63 1096.04 C 1654.67 1096.01 1653.6 1107.98 1646.04 1104.81 L 1645.04 1102.89 C 1636.7 1104.52 1607.95 1149.67 1600.65 1150.27 C 1598.64 1147.33 1598.93 1141.73 1598.81 1137.91 C 1601.42 1134.15 1603.68 1131.43 1605.17 1127.1 L 1604.11 1126.76 C 1599.71 1129.33 1595.66 1134.24 1589.76 1137.71 L 1589.29 1136.83 C 1592.16 1133.57 1594.11 1131.1 1592.79 1126.93 C 1594.01 1124.81 1606.28 1113.98 1608.85 1111.7 C 1625.9 1096.57 1637.4 1070.78 1642.58 1048.93 z"/>
<path transform="translate(0,0)" fill="rgb(27,95,207)" d="M 1513.72 1194.11 C 1511.88 1193.16 1509.92 1194.23 1507.16 1192.6 C 1509.63 1191.06 1535.57 1184.43 1539.08 1185.69 L 1537.69 1188.56 C 1539.93 1188.98 1542.17 1189.46 1544.39 1189.98 C 1538.76 1190.95 1539.42 1189.99 1535.63 1193.16 C 1530.4 1194.64 1519.28 1194.46 1513.72 1194.11 z"/>
<path transform="translate(0,0)" fill="rgb(27,95,207)" d="M 1575.17 1171.64 L 1576.47 1172.05 C 1574.75 1174.62 1565.72 1176.61 1562.67 1177.26 L 1561.64 1176.76 C 1565.97 1172.69 1569.49 1171.66 1575.17 1171.64 z"/>
<path transform="translate(0,0)" fill="url(#Gradient7)" d="M 1357.32 1071.59 C 1351.46 1053.84 1348.8 1035.2 1349.46 1016.52 C 1354.91 1020.69 1373.38 1020.32 1379.59 1018.89 C 1391.92 1027.06 1385 1035.73 1390.56 1044.86 L 1391.41 1043.29 C 1392.46 1047.28 1393.62 1051.24 1394.88 1055.17 L 1393.01 1057.51 L 1391.21 1057.63 C 1386.8 1051.59 1387.58 1042.15 1384.33 1039.54 C 1379.05 1041.61 1374.43 1044.7 1369.61 1047.68 L 1373.17 1049.65 C 1370.13 1055.5 1364.98 1056.48 1359.23 1056.75 C 1356.6 1058.64 1357.68 1057.43 1356.39 1060.9 C 1357.18 1064.21 1357.34 1064.42 1358.75 1067.35 C 1358.45 1068.38 1357.92 1070.72 1357.32 1071.59 z"/>
<path transform="translate(0,0)" fill="url(#Gradient6)" d="M 650.102 959.549 C 656.079 976.265 660.84 994.354 661.089 1012.23 C 663.957 1045.99 661.094 1089.6 662.111 1124.19 C 662.368 1132.95 662.417 1179.82 661.372 1186.06 L 635.746 1185.91 C 632.048 1186.14 625.898 1185.89 622.009 1185.87 C 621.634 1171.15 620.376 1148.14 621.321 1134.06 C 616.529 1135.03 604.091 1151.92 595.035 1157.74 C 548.757 1191.82 499.292 1204.47 443.254 1185.95 C 453.472 1173.55 474.068 1167.54 483.245 1154.16 C 489.013 1154.18 491.657 1154.12 497.544 1153.29 C 559.861 1147.68 604.315 1108.31 617.574 1047 L 618.575 1037.02 C 620.216 1017.16 619.584 999.62 613.493 980.38 C 620.388 979.139 639.948 974.535 644.493 970.081 C 646.245 965.294 647.016 963.592 650.102 959.549 z"/>
<path transform="translate(0,0)" fill="url(#Gradient5)" d="M 622.797 1129.02 C 634.709 1120.28 646.783 1109.71 661.383 1104.67 C 661.295 1117.93 662.06 1144.51 661.085 1156.71 C 661.197 1163.75 660.73 1180.19 661.372 1186.06 L 635.746 1185.91 C 632.048 1186.14 625.898 1185.89 622.009 1185.87 C 621.634 1171.15 620.376 1148.14 621.321 1134.06 C 622.874 1131.66 622.344 1132.2 622.797 1129.02 z"/>
<path transform="translate(0,0)" fill="rgb(251,219,232)" d="M 635.746 1185.91 C 638.209 1184.14 638.684 1183.55 641.824 1183.49 L 648.726 1183.43 C 647.616 1181.08 647.968 1180.9 648.417 1178.24 C 656.024 1169.94 657.066 1166.67 661.085 1156.71 C 661.197 1163.75 660.73 1180.19 661.372 1186.06 L 635.746 1185.91 z"/>
<path transform="translate(0,0)" fill="rgb(10,54,189)" d="M 650.102 959.549 C 656.079 976.265 660.84 994.354 661.089 1012.23 L 660.588 1012.94 C 654.577 1021.62 657.313 1023.74 646.229 1028.08 C 636.741 1031.8 629.498 1035.07 619.357 1036.89 L 618.575 1037.02 C 620.216 1017.16 619.584 999.62 613.493 980.38 C 620.388 979.139 639.948 974.535 644.493 970.081 C 646.245 965.294 647.016 963.592 650.102 959.549 z"/>
<path transform="translate(0,0)" fill="rgb(108,88,197)" d="M 661.089 1012.23 C 663.957 1045.99 661.094 1089.6 662.111 1124.19 C 662.368 1132.95 662.417 1179.82 661.372 1186.06 C 660.73 1180.19 661.197 1163.75 661.085 1156.71 C 662.06 1144.51 661.295 1117.93 661.383 1104.67 C 661.606 1093.11 661.955 1077.22 661.09 1065.9 C 654.327 1067.13 643.034 1069.84 636.767 1068.11 C 631.377 1068.68 628.631 1071.53 625.697 1070.69 L 626.081 1066.87 C 627.251 1065.96 628.265 1065.41 629.579 1064.75 L 629.793 1062.91 L 626.881 1060.39 C 629.137 1059.19 640.788 1059.73 645.433 1059.22 C 640.99 1056.35 629.829 1059.84 626.25 1057.01 L 629.86 1056.58 C 628.397 1054.6 623.641 1053.95 620.665 1053.16 C 620.889 1051.02 620.997 1050.94 621.925 1049.05 C 619.958 1046.66 621.237 1047.53 617.574 1047 L 618.575 1037.02 L 619.357 1036.89 C 629.498 1035.07 636.741 1031.8 646.229 1028.08 C 657.313 1023.74 654.577 1021.62 660.588 1012.94 L 661.089 1012.23 z"/>
<path transform="translate(0,0)" fill="rgb(174,107,201)" d="M 636.767 1068.11 L 654.883 1055.09 L 656.277 1055.37 C 657.139 1058.82 657.445 1060.48 657.94 1064.01 L 661.09 1065.9 C 654.327 1067.13 643.034 1069.84 636.767 1068.11 z"/>
<path transform="translate(0,0)" fill="rgb(203,110,188)" d="M 595.035 1157.74 C 599.406 1146.8 611.065 1132.03 622.797 1129.02 C 622.344 1132.2 622.874 1131.66 621.321 1134.06 C 616.529 1135.03 604.091 1151.92 595.035 1157.74 z"/>
<path transform="translate(0,0)" fill="rgb(10,54,189)" d="M 422.747 864.494 C 429.783 864.746 433.014 860.977 439.805 860.084 C 440.998 867.657 438.72 879.343 439.625 887.583 C 440.159 892.441 441.546 899.245 436.637 901.159 L 434.914 900.988 C 432.664 894.369 433.673 876.635 429.999 870.928 L 428.366 871.36 C 427.516 876.456 429.866 901.167 431.607 905.918 C 420.042 913.834 413.785 918.753 404.102 928.56 C 346.801 986.593 356.424 1087.08 424.99 1131.83 C 431.808 1136.28 438.683 1139.87 445.933 1143.46 C 465.565 1150.91 476.358 1153.35 497.544 1153.29 C 491.657 1154.12 489.013 1154.18 483.245 1154.16 C 474.068 1167.54 453.472 1173.55 443.254 1185.95 C 437.216 1184.09 428.348 1180.65 422.891 1177.49 C 407.55 1171.03 393.357 1162.12 380.866 1151.12 C 355.366 1128.38 327.195 1080.2 325.303 1046.25 C 315.884 1004.13 337.547 938.349 366.547 906.725 C 373.787 894.235 408.858 870.933 422.747 864.494 z"/>
<path transform="translate(0,0)" fill="rgb(27,95,207)" d="M 366.547 906.725 C 366.303 912.915 346.997 933.62 348.72 938.27 C 354.576 954.07 352.056 962.81 350.781 979.949 C 349.532 996.733 333.141 1005.41 326.311 1019.16 C 323.352 1025.11 327.824 1039.33 325.303 1046.25 C 315.884 1004.13 337.547 938.349 366.547 906.725 z"/>
<path transform="translate(0,0)" fill="rgb(108,88,197)" d="M 445.933 1143.46 C 465.565 1150.91 476.358 1153.35 497.544 1153.29 C 491.657 1154.12 489.013 1154.18 483.245 1154.16 C 474.068 1167.54 453.472 1173.55 443.254 1185.95 C 437.216 1184.09 428.348 1180.65 422.891 1177.49 L 423.871 1176.76 L 427.429 1177.94 C 442.484 1162.16 442.039 1161.2 461.479 1150.83 C 454.918 1148.96 450.572 1148.29 445.933 1143.46 z"/>
<path transform="translate(0,0)" fill="url(#Gradient4)" d="M 1368.51 945.379 C 1376.16 930.131 1383.84 914.734 1396.03 902.512 C 1427.6 870.837 1467 850.487 1511.93 848.959 C 1555.22 847.236 1597.43 862.709 1629.34 891.998 C 1630.92 897.047 1635.63 901.68 1639.09 905.756 L 1638.66 906.376 C 1627.4 906.691 1601.79 921.098 1591.03 911.691 L 1589.63 912.745 C 1566.55 896.498 1549.84 891.119 1521.49 890.548 C 1468.06 889.473 1439.15 911.327 1409.33 953.942 C 1408.7 954.835 1408.09 955.734 1407.49 956.64 C 1392.26 986.213 1387.82 1009.96 1391.41 1043.29 L 1390.56 1044.86 C 1385 1035.73 1391.92 1027.06 1379.59 1018.89 C 1373.38 1020.32 1354.91 1020.69 1349.46 1016.52 C 1349.7 1011.37 1350.08 1007.6 1350.71 1002.54 C 1353.92 983.071 1359.14 962.841 1368.51 945.379 z"/>
<path transform="translate(0,0)" fill="url(#Gradient3)" d="M 1368.51 945.379 L 1369.11 947.238 C 1367.43 952.529 1361.11 968.787 1360.85 972.679 C 1366.23 972.701 1374.85 963.173 1380.96 963.081 C 1384.43 963.029 1391.25 959.551 1394.64 957.93 C 1401.92 959.185 1401.82 960.179 1407.49 956.64 C 1392.26 986.213 1387.82 1009.96 1391.41 1043.29 L 1390.56 1044.86 C 1385 1035.73 1391.92 1027.06 1379.59 1018.89 C 1373.38 1020.32 1354.91 1020.69 1349.46 1016.52 C 1349.7 1011.37 1350.08 1007.6 1350.71 1002.54 C 1353.92 983.071 1359.14 962.841 1368.51 945.379 z"/>
<path transform="translate(0,0)" fill="rgb(174,107,201)" d="M 1349.46 1016.52 C 1349.7 1011.37 1350.08 1007.6 1350.71 1002.54 C 1351.35 1006.62 1350.8 1007.91 1353.06 1010.43 C 1361.14 1010.51 1380.93 1009.02 1385.85 1015.22 C 1384.3 1017.88 1383.21 1017.62 1379.59 1018.89 C 1373.38 1020.32 1354.91 1020.69 1349.46 1016.52 z"/>
<path transform="translate(0,0)" fill="rgb(9,10,65)" d="M 422.747 864.494 C 497.594 824.775 593.047 855.523 633.745 927.49 C 639.516 937.694 646.133 948.475 650.102 959.549 C 647.016 963.592 646.245 965.294 644.493 970.081 C 639.948 974.535 620.388 979.139 613.493 980.38 C 611.019 972.422 607.71 964.747 603.622 957.485 C 589.686 932.753 558.605 900.141 530.266 894.456 C 490.408 886.46 466.053 886.597 431.607 905.918 C 429.866 901.167 427.516 876.456 428.366 871.36 L 429.999 870.928 C 433.673 876.635 432.664 894.369 434.914 900.988 L 436.637 901.159 C 441.546 899.245 440.159 892.441 439.625 887.583 C 438.72 879.343 440.998 867.657 439.805 860.084 C 433.014 860.977 429.783 864.746 422.747 864.494 z"/>
<path transform="translate(0,0)" fill="rgb(49,39,82)" d="M 1296.24 1033.43 C 1297.43 1039.46 1296.43 1043.12 1299.69 1045.84 C 1309.75 1046.08 1322.76 1031.35 1332.72 1037.24 C 1334.78 1040.11 1335.03 1040.21 1336.21 1043.67 C 1336.45 1060.39 1336.37 1077.11 1335.96 1093.83 L 1335.78 1128.63 C 1336 1140 1337.99 1176.55 1333.82 1184.11 C 1329.55 1186.49 1320.54 1186.35 1316.3 1185.16 C 1311.24 1185.34 1303.65 1184.89 1298.43 1184.73 C 1297.51 1179.09 1297.14 1175.77 1296.79 1170.06 C 1295.89 1163.69 1296.21 1146.26 1296.24 1139.38 C 1296.33 1123.09 1296.16 1105.96 1296.75 1089.72 C 1296.48 1084.56 1296.69 1079.73 1296.84 1074.58 C 1296.81 1060.95 1296.31 1047.15 1296.24 1033.43 z"/>
<path transform="translate(0,0)" fill="rgb(97,79,140)" d="M 1296.24 1033.43 C 1297.43 1039.46 1296.43 1043.12 1299.69 1045.84 C 1309.75 1046.08 1322.76 1031.35 1332.72 1037.24 C 1334.78 1040.11 1335.03 1040.21 1336.21 1043.67 C 1336.45 1060.39 1336.37 1077.11 1335.96 1093.83 C 1333.97 1083.83 1330.51 1060.3 1330.16 1050.88 L 1328.97 1050.37 C 1325.56 1051.29 1325.81 1051.27 1323.25 1053.76 C 1323.48 1055.66 1323.23 1056.25 1324.17 1057.94 L 1320.82 1059.67 L 1319.79 1058.84 L 1320 1053.95 C 1308.51 1053.89 1296.22 1058.65 1300.84 1072.28 C 1298.87 1074.83 1300.14 1074.05 1296.84 1074.58 C 1296.81 1060.95 1296.31 1047.15 1296.24 1033.43 z"/>
<path transform="translate(0,0)" fill="rgb(97,79,140)" d="M 1316.3 1185.16 L 1317.39 1183.94 L 1330.23 1183.79 C 1331.49 1181.46 1331.01 1179.17 1330.58 1176.67 C 1329.26 1169.06 1334.78 1139.65 1335.78 1128.63 C 1336 1140 1337.99 1176.55 1333.82 1184.11 C 1329.55 1186.49 1320.54 1186.35 1316.3 1185.16 z"/>
<path transform="translate(0,0)" fill="rgb(9,10,65)" d="M 1296.79 1170.06 C 1295.89 1163.69 1296.21 1146.26 1296.24 1139.38 C 1296.33 1123.09 1296.16 1105.96 1296.75 1089.72 C 1299.42 1118.7 1300.33 1140.93 1296.79 1170.06 z"/>
<path transform="translate(0,0)" fill="url(#Gradient2)" d="M 1638.48 978.644 C 1640.07 975.873 1639.55 977.433 1638.54 973.193 C 1642.32 968.888 1659.9 953.084 1665.48 955.292 C 1668.89 959.831 1670.18 963.97 1672.27 969.234 C 1675.79 981.395 1680.43 1004.93 1678.97 1017.55 C 1677.64 1021.3 1677.59 1022.35 1677.64 1026.35 C 1671.9 1030.98 1648.49 1048.49 1642.58 1048.93 C 1646.45 1023.93 1645.57 1002.78 1638.48 978.644 z"/>
<path transform="translate(0,0)" fill="url(#Gradient1)" d="M 1629.34 891.998 C 1643.25 902.549 1666.43 940.651 1671.44 956.324 L 1668.05 952.364 L 1667.53 952.899 C 1670.01 959.402 1671.52 962.413 1672.27 969.234 C 1670.18 963.97 1668.89 959.831 1665.48 955.292 C 1659.9 953.084 1642.32 968.888 1638.54 973.193 C 1639.55 977.433 1640.07 975.873 1638.48 978.644 C 1623.55 943.346 1615.17 937.991 1589.63 912.745 L 1591.03 911.691 C 1601.79 921.098 1627.4 906.691 1638.66 906.376 L 1639.09 905.756 C 1635.63 901.68 1630.92 897.047 1629.34 891.998 z"/>
<path transform="translate(0,0)" fill="rgb(128,128,206)" d="M 1672.27 969.234 C 1671.52 962.413 1670.01 959.402 1667.53 952.899 L 1668.05 952.364 L 1671.44 956.324 C 1686.4 980.495 1688.33 1033.71 1679.85 1060.68 C 1678.38 1050.97 1679.57 1029.66 1678.97 1017.55 C 1680.43 1004.93 1675.79 981.395 1672.27 969.234 z"/>
</svg>